<svg xmlns="http://www.w3.org/2000/svg" viewBox="0 0 1200 630" width="1200" height="630"><rect width="1200" height="630" fill="#F8F6F1"/><g transform="translate(150 250) scale(1.2)" fill="none" stroke="#101820" stroke-width="1.5" stroke-linecap="round" stroke-linejoin="round"><rect fill="#D3CCB0" stroke="none" x="446" y="58" width="232" height="168" rx="6"/>
<path d="M40 46C120 43 200 48 300 45L302 208C220 211 120 206 38 210Z"/><path d="M39 80C120 78 200 82 301 79"/><path d="M52 62h58M130 62C170 61 230 63 282 62"/><path d="M60 118h120M60 140h180M60 162h90"/><rect x="200" y="150" width="70" height="42" rx="3"/>
<path d="M318 128C346 96 380 96 410 124M396 112L411 125L390 131"/>
<path d="M420 36C500 33 590 38 650 35L652 196C580 199 490 194 418 198Z"/><path d="M419 64C500 62 590 66 651 63"/><circle cx="434" cy="50" r="3"/><circle cx="446" cy="50" r="3"/><circle cx="458" cy="50" r="3"/>
<rect x="440" y="88" width="42" height="42" rx="9"/><path d="M452 104h18M452 114h12"/><path d="M500 96h120M500 116h90M440 156h180M440 174h110"/>
<path d="M540 198C540 222 480 226 452 244" stroke-dasharray="2 6"/>
<path d="M330 246C400 243 500 248 574 245L575 276C500 279 400 274 329 277Z"/><rect x="346" y="253" width="20" height="16" rx="4"/><rect x="376" y="253" width="20" height="16" rx="4"/><rect x="436" y="251" width="26" height="20" rx="5"/><path d="M443 278h12"/><rect x="480" y="253" width="20" height="16" rx="4"/></g><text x="80" y="130" font-family="Helvetica Neue,Arial,sans-serif" font-size="64" font-weight="300" fill="#101820" letter-spacing="-2">Turn any website into a desktop app.</text><text x="80" y="190" font-family="Helvetica Neue,Arial,sans-serif" font-size="30" font-weight="300" fill="#63666A">Paneshell. Paste a URL, get an app.</text></svg>